<?xml version="1.0" standalone="no"?>
<!DOCTYPE svg PUBLIC "-//W3C//DTD SVG 20010904//EN"
 "http://www.w3.org/TR/2001/REC-SVG-20010904/DTD/svg10.dtd">
<svg version="1.0" xmlns="http://www.w3.org/2000/svg"
 width="730.000000pt" height="730.000000pt" viewBox="0 0 730.000000 730.000000"
 preserveAspectRatio="xMidYMid meet">
<metadata>
Created by potrace 1.14, written by Peter Selinger 2001-2017
</metadata>
<g transform="translate(0.000000,730.000000) scale(0.100000,-0.100000)"
fill="#000000" stroke="none">
<path d="M3434 7015 c-293 -168 -520 -300 -709 -410 -82 -48 -168 -97 -190
-109 -52 -29 -421 -242 -555 -321 -58 -34 -112 -65 -120 -69 -8 -4 -24 -12
-35 -19 -11 -7 -51 -30 -90 -51 -38 -22 -81 -47 -95 -56 -14 -10 -56 -34 -95
-55 -38 -21 -77 -44 -86 -51 -8 -8 -18 -14 -22 -14 -3 0 -30 -14 -59 -31 -29
-18 -69 -41 -88 -52 -61 -34 -424 -244 -460 -266 -19 -11 -42 -24 -50 -28 -8
-3 -27 -15 -42 -25 -14 -10 -31 -18 -37 -18 -6 0 -26 -10 -45 -22 l-33 -22 1
-1734 1 -1733 305 -181 c413 -245 670 -397 702 -417 40 -24 140 -84 163 -96
11 -7 117 -69 235 -140 118 -70 386 -229 595 -353 209 -124 396 -235 415 -247
19 -12 42 -25 50 -28 8 -4 27 -15 42 -25 15 -9 141 -84 279 -166 l251 -149 36
20 c20 11 141 79 267 153 250 144 279 161 328 188 17 11 145 84 282 164 138
79 311 179 385 222 74 43 142 82 150 86 58 35 218 127 230 133 8 4 31 17 50
28 19 12 53 32 75 44 22 13 81 46 130 75 50 29 104 60 120 70 66 38 362 209
395 228 44 26 139 81 205 117 28 16 66 38 85 50 35 22 48 29 210 121 47 26 87
49 89 51 2 1 4 793 4 1760 -1 1703 -1 1757 -19 1770 -11 8 -50 30 -89 50 -38
19 -74 39 -80 43 -11 8 -228 134 -665 385 -151 87 -365 210 -475 275 -110 64
-207 119 -215 123 -8 4 -28 15 -45 26 -31 18 -223 130 -725 419 -157 90 -310
179 -340 197 -30 18 -75 43 -100 57 -25 14 -99 56 -166 95 l-120 70 -230 -132z"/>
</g>
</svg>
